Complete name                    : The Lullaby of Bareland (1964).avi
Format                           : AVI
Format/Info                      : Audio Video Interleave
File size                        : 400 MiB
Duration                         : 56mn 50s
Overall bit rate                 : 984 Kbps
Writing library                  : VirtualDub build 28292/release

Video
ID                               : 0
Format                           : MPEG-4 Visual
Format settings, BVOP            : Yes
Format settings, QPel            : No
Format settings, GMC             : No warppoints
Format settings, Matrix          : Default (H.263)
Muxing mode                      : Packed bitstream
Codec ID                         : DX50
Codec ID/Hint                    : DivX 5
Duration                         : 56mn 50s
Bit rate                         : 780 Kbps
Width                            : 640 pixels
Height                           : 480 pixels
Display aspect ratio             : 4:3
Frame rate                       : 29.970 fps
Resolution                       : 24 bits
Colorimetry                      : 4:2:0
Scan type                        : Progressive
Bits/(Pixel*Frame)               : 0.085
Stream size                      : 317 MiB (79%)
Writing library                  : DivX 6.2.5 (UTC 2006-07)

Audio
ID                               : 1
Format                           : MPEG Audio
Format version                   : Version 1
Format profile                   : Layer 3
Codec ID                         : 55
Codec ID/Hint                    : MP3
Duration                         : 56mn 50s
Bit rate mode                    : Constant
Bit rate                         : 192 Kbps
Channel(s)                       : 2 channels
Sampling rate                    : 44.1 KHz
Resolution                       : 16 bits
Video delay                      : 4ms
Stream size                      : 78.1 MiB (20%)
Alignment                        : Split accross interleaves
Interleave, duration             : 33 ms (1.00 video frame)
Interleave, preload duration     : 500 ms

 
http://www.somethingweird.com/cart.php?target=product&product_id=27770&substring=bareland